<svg width="24" height="24" viewBox="0 0 24 24" fill="none" xmlns="http://www.w3.org/2000/svg">
<path fill-rule="evenodd" clip-rule="evenodd" d="M12 8.5C10.067 8.5 8.5 10.067 8.5 12C8.5 13.933 10.067 15.5 12 15.5C13.933 15.5 15.5 13.933 15.5 12C15.5 10.067 13.933 8.5 12 8.5ZM7.5 12C7.5 9.51472 9.51472 7.5 12 7.5C14.4853 7.5 16.5 9.51472 16.5 12C16.5 14.4853 14.4853 16.5 12 16.5C9.51472 16.5 7.5 14.4853 7.5 12Z" fill="#403F3D"/>
<path fill-rule="evenodd" clip-rule="evenodd" d="M8 3.5C5.51472 3.5 3.5 5.51472 3.5 8V16C3.5 18.4853 5.51472 20.5 8 20.5H16C18.4853 20.5 20.5 18.4853 20.5 16V8C20.5 5.51472 18.4853 3.5 16 3.5H8ZM2.5 8C2.5 4.96243 4.96243 2.5 8 2.5H16C19.0376 2.5 21.5 4.96243 21.5 8V16C21.5 19.0376 19.0376 21.5 16 21.5H8C4.96243 21.5 2.5 19.0376 2.5 16V8Z" fill="#403F3D"/>
<path fill-rule="evenodd" clip-rule="evenodd" d="M17.8445 6.12723C18.0497 6.31196 18.0664 6.6281 17.8817 6.83336L17.8717 6.84447C17.6869 7.04972 17.3708 7.06636 17.1655 6.88163C16.9603 6.6969 16.9436 6.38076 17.1284 6.1755L17.1384 6.16439C17.3231 5.95914 17.6392 5.9425 17.8445 6.12723Z" fill="#403F3D"/>
</svg>
